<svg xmlns="http://www.w3.org/2000/svg" xmlns:xlink="http://www.w3.org/1999/xlink" width="500" zoomAndPan="magnify" viewBox="0 0 375 374.999991" height="500" preserveAspectRatio="xMidYMid meet" version="1.0"><defs><g/></defs><g fill="#ee6c4d" fill-opacity="1"><g transform="translate(140.603169, 199.124987)"><g><path d="M 35.710938 -13.441406 C 35.710938 -13.921875 35.808594 -14.398438 35.808594 -14.878906 C 35.808594 -24.289062 27.550781 -33.792969 19.585938 -40.320312 C 17.664062 -41.855469 16.894531 -43.679688 16.894531 -45.40625 C 16.894531 -49.34375 20.734375 -53.375 24.097656 -55.390625 C 29.761719 -58.753906 35.039062 -62.59375 41.28125 -65.183594 C 43.585938 -66.144531 46.753906 -67.296875 46.753906 -70.464844 C 46.753906 -72.960938 42.625 -76.511719 37.632812 -76.511719 C 36.191406 -76.511719 35.617188 -75.9375 34.753906 -75.457031 C 18.238281 -71.425781 3.839844 -53.953125 3.839844 -44.542969 C 3.839844 -40.894531 5.953125 -37.246094 10.847656 -32.832031 C 15.9375 -28.800781 21.40625 -21.792969 21.40625 -16.800781 C 21.40625 -13.152344 19.296875 -11.136719 14.785156 -9.023438 C 11.710938 -7.488281 9.40625 -2.976562 9.40625 0 C 9.40625 4.128906 12.863281 6.527344 17.28125 6.527344 C 26.878906 6.527344 35.136719 -3.359375 35.710938 -13.441406 Z M 35.710938 -13.441406 "/></g></g></g><g fill="#ee6c4d" fill-opacity="1"><g transform="translate(181.595171, 199.124987)"><g><path d="M 25.726562 -10.945312 C 31.488281 -5.183594 37.34375 1.921875 46.367188 1.921875 C 49.246094 1.921875 52.800781 -0.0976562 52.800781 -3.9375 C 52.800781 -6.144531 51.359375 -7.777344 49.824219 -9.695312 C 48.671875 -11.136719 47.136719 -11.039062 45.40625 -11.230469 C 41.375 -11.710938 38.6875 -15.167969 38.6875 -18.910156 C 38.6875 -22.945312 45.503906 -22.753906 45.503906 -25.726562 C 45.503906 -30.144531 39.9375 -32.640625 36.574219 -32.640625 C 33.40625 -32.640625 27.550781 -29.855469 24.671875 -29.855469 C 20.832031 -29.855469 19.871094 -38.785156 18.71875 -43.390625 C 17.953125 -45.3125 17.855469 -47.425781 16.703125 -49.441406 C 14.59375 -52.320312 11.808594 -54.046875 9.023438 -54.046875 C 5.375 -54.046875 2.878906 -51.167969 2.878906 -47.519531 C 2.878906 -46.464844 3.070312 -45.214844 3.550781 -43.96875 C 5.566406 -38.207031 7.679688 -30.335938 7.679688 -25.152344 C 7.679688 -23.039062 7.199219 -20.929688 5.28125 -18.910156 C 4.511719 -18.046875 4.128906 -17.089844 4.128906 -16.222656 C 4.128906 -10.945312 13.152344 -6.238281 16.128906 -6.238281 C 19.007812 -6.238281 22.078125 -7.777344 25.726562 -10.945312 Z M 25.726562 -10.945312 "/></g></g></g><g fill="#ee6c4d" fill-opacity="1"><g transform="translate(121.965495, 215.249986)"><g><path d="M 0.609375 -0.40625 C 0.585938 -0.5 0.578125 -0.675781 0.578125 -0.9375 C 0.578125 -1.207031 0.628906 -1.492188 0.734375 -1.796875 L 0.8125 -1.796875 C 0.8125 -1.722656 0.8125 -1.648438 0.8125 -1.578125 C 0.8125 -1.171875 0.929688 -0.832031 1.171875 -0.5625 C 1.421875 -0.289062 1.75 -0.15625 2.15625 -0.15625 C 2.582031 -0.15625 2.925781 -0.28125 3.1875 -0.53125 C 3.457031 -0.789062 3.59375 -1.109375 3.59375 -1.484375 C 3.59375 -1.867188 3.460938 -2.1875 3.203125 -2.4375 L 1.296875 -4.203125 C 0.929688 -4.535156 0.75 -4.9375 0.75 -5.40625 C 0.75 -5.882812 0.90625 -6.289062 1.21875 -6.625 C 1.539062 -6.96875 1.972656 -7.140625 2.515625 -7.140625 C 2.765625 -7.140625 3.050781 -7.109375 3.375 -7.046875 L 3.765625 -7.046875 L 3.765625 -5.8125 L 3.671875 -5.8125 C 3.671875 -6.125 3.5625 -6.375 3.34375 -6.5625 C 3.125 -6.75 2.84375 -6.84375 2.5 -6.84375 C 2.164062 -6.84375 1.882812 -6.726562 1.65625 -6.5 C 1.425781 -6.269531 1.3125 -5.984375 1.3125 -5.640625 C 1.3125 -5.304688 1.441406 -5.015625 1.703125 -4.765625 L 3.6875 -2.953125 C 4.019531 -2.640625 4.1875 -2.21875 4.1875 -1.6875 C 4.1875 -1.15625 4.015625 -0.71875 3.671875 -0.375 C 3.328125 -0.03125 2.875 0.140625 2.3125 0.140625 C 2.019531 0.140625 1.707031 0.09375 1.375 0 C 1.039062 -0.0820312 0.785156 -0.21875 0.609375 -0.40625 Z M 0.609375 -0.40625 "/></g></g></g><g fill="#ee6c4d" fill-opacity="1"><g transform="translate(130.713625, 215.249986)"><g><path d="M 5 -0.09375 C 5.15625 -0.09375 5.285156 -0.144531 5.390625 -0.25 C 5.503906 -0.351562 5.566406 -0.476562 5.578125 -0.625 L 5.578125 -2.8125 L 1.890625 -2.8125 L 1.890625 -0.625 C 1.898438 -0.476562 1.957031 -0.351562 2.0625 -0.25 C 2.175781 -0.144531 2.3125 -0.09375 2.46875 -0.09375 L 2.59375 -0.09375 L 2.59375 0 L 0.546875 0 L 0.546875 -0.09375 L 0.671875 -0.09375 C 0.828125 -0.09375 0.957031 -0.144531 1.0625 -0.25 C 1.175781 -0.363281 1.238281 -0.492188 1.25 -0.640625 L 1.25 -5.359375 C 1.238281 -5.503906 1.175781 -5.628906 1.0625 -5.734375 C 0.957031 -5.847656 0.828125 -5.90625 0.671875 -5.90625 L 0.546875 -5.90625 L 0.546875 -6 L 2.59375 -6 L 2.59375 -5.90625 L 2.46875 -5.90625 C 2.3125 -5.90625 2.175781 -5.851562 2.0625 -5.75 C 1.957031 -5.644531 1.898438 -5.519531 1.890625 -5.375 L 1.890625 -3.109375 L 5.578125 -3.109375 L 5.578125 -5.359375 C 5.578125 -5.503906 5.535156 -5.617188 5.453125 -5.703125 C 5.304688 -5.835938 5.15625 -5.90625 5 -5.90625 L 4.875 -5.90625 L 4.875 -6 L 6.921875 -6 L 6.921875 -5.90625 L 6.796875 -5.90625 C 6.640625 -5.90625 6.503906 -5.851562 6.390625 -5.75 C 6.285156 -5.644531 6.226562 -5.519531 6.21875 -5.375 L 6.21875 -0.625 C 6.226562 -0.476562 6.269531 -0.367188 6.34375 -0.296875 C 6.488281 -0.160156 6.640625 -0.09375 6.796875 -0.09375 L 6.921875 -0.09375 L 6.921875 0 L 4.875 0 L 4.875 -0.09375 Z M 5 -0.09375 "/></g></g></g><g fill="#ee6c4d" fill-opacity="1"><g transform="translate(142.170686, 215.249986)"><g><path d="M 6.59375 -0.09375 L 6.6875 -0.09375 L 6.6875 0 L 4.625 0 L 4.625 -0.09375 L 4.703125 -0.09375 C 4.835938 -0.09375 4.9375 -0.132812 5 -0.21875 C 5.0625 -0.3125 5.09375 -0.394531 5.09375 -0.46875 C 5.09375 -0.550781 5.082031 -0.628906 5.0625 -0.703125 L 4.515625 -2.03125 L 1.984375 -2.03125 L 1.4375 -0.734375 C 1.394531 -0.640625 1.375 -0.554688 1.375 -0.484375 C 1.375 -0.410156 1.40625 -0.328125 1.46875 -0.234375 C 1.539062 -0.140625 1.644531 -0.09375 1.78125 -0.09375 L 1.859375 -0.09375 L 1.859375 0 L -0.046875 0 L -0.046875 -0.09375 L 0.03125 -0.09375 C 0.164062 -0.09375 0.304688 -0.140625 0.453125 -0.234375 C 0.597656 -0.335938 0.71875 -0.488281 0.8125 -0.6875 C 2.269531 -3.800781 3.03125 -5.429688 3.09375 -5.578125 C 3.207031 -5.859375 3.265625 -6.046875 3.265625 -6.140625 L 3.359375 -6.140625 L 5.828125 -0.6875 C 6.023438 -0.289062 6.28125 -0.09375 6.59375 -0.09375 Z M 2.109375 -2.328125 L 4.390625 -2.328125 L 3.265625 -5.0625 Z M 2.109375 -2.328125 "/></g></g></g><g fill="#ee6c4d" fill-opacity="1"><g transform="translate(152.798074, 215.249986)"><g><path d="M 0.6875 -0.09375 C 0.863281 -0.09375 1.019531 -0.144531 1.15625 -0.25 C 1.289062 -0.363281 1.359375 -0.492188 1.359375 -0.640625 L 1.359375 -5.359375 C 1.359375 -5.503906 1.289062 -5.628906 1.15625 -5.734375 C 1.019531 -5.847656 0.863281 -5.90625 0.6875 -5.90625 L 0.546875 -5.90625 L 0.546875 -6 L 2.8125 -6 L 2.8125 -5.90625 L 2.6875 -5.90625 C 2.5 -5.90625 2.335938 -5.851562 2.203125 -5.75 C 2.078125 -5.644531 2.007812 -5.519531 2 -5.375 L 2 -0.625 C 2.007812 -0.476562 2.078125 -0.351562 2.203125 -0.25 C 2.335938 -0.144531 2.5 -0.09375 2.6875 -0.09375 L 2.8125 -0.09375 L 2.8125 0 L 0.546875 0 L 0.546875 -0.09375 Z M 0.6875 -0.09375 "/></g></g></g><g fill="#ee6c4d" fill-opacity="1"><g transform="translate(160.156753, 215.249986)"><g><path d="M 0.6875 -0.09375 C 0.851562 -0.09375 0.988281 -0.144531 1.09375 -0.25 C 1.207031 -0.351562 1.265625 -0.476562 1.265625 -0.625 L 1.265625 -5.359375 C 1.265625 -5.503906 1.203125 -5.628906 1.078125 -5.734375 C 0.960938 -5.847656 0.828125 -5.90625 0.671875 -5.90625 L 0.546875 -5.90625 L 0.546875 -6 L 2.625 -6 L 2.625 -5.90625 L 2.5 -5.90625 C 2.34375 -5.90625 2.203125 -5.847656 2.078125 -5.734375 C 1.960938 -5.628906 1.90625 -5.503906 1.90625 -5.359375 L 1.90625 -0.3125 L 3.46875 -0.3125 C 3.78125 -0.3125 4.039062 -0.363281 4.25 -0.46875 C 4.457031 -0.570312 4.617188 -0.695312 4.734375 -0.84375 C 4.847656 -0.988281 4.957031 -1.1875 5.0625 -1.4375 L 5.15625 -1.4375 L 4.609375 0 L 0.546875 0 L 0.546875 -0.09375 Z M 0.6875 -0.09375 "/></g></g></g><g fill="#ee6c4d" fill-opacity="1"><g transform="translate(169.514635, 215.249986)"><g><path d="M 0.6875 -0.09375 C 0.851562 -0.09375 0.988281 -0.144531 1.09375 -0.25 C 1.207031 -0.351562 1.265625 -0.476562 1.265625 -0.625 L 1.265625 -5.375 C 1.265625 -5.519531 1.207031 -5.644531 1.09375 -5.75 C 0.988281 -5.851562 0.851562 -5.90625 0.6875 -5.90625 L 0.546875 -5.90625 L 0.546875 -6 L 3.46875 -6 C 3.738281 -6 3.976562 -6.019531 4.1875 -6.0625 C 4.394531 -6.101562 4.53125 -6.132812 4.59375 -6.15625 L 4.59375 -5.015625 L 4.484375 -5.03125 L 4.484375 -5.1875 C 4.484375 -5.320312 4.4375 -5.4375 4.34375 -5.53125 C 4.25 -5.632812 4.128906 -5.6875 3.984375 -5.6875 L 1.90625 -5.6875 L 1.90625 -3.15625 L 3.609375 -3.15625 C 3.742188 -3.15625 3.84375 -3.191406 3.90625 -3.265625 C 3.976562 -3.347656 4.015625 -3.445312 4.015625 -3.5625 L 4.015625 -3.703125 L 4.125 -3.703125 L 4.125 -2.296875 L 4.015625 -2.296875 L 4.015625 -2.4375 C 4.015625 -2.613281 3.945312 -2.738281 3.8125 -2.8125 C 3.757812 -2.832031 3.703125 -2.84375 3.640625 -2.84375 L 1.90625 -2.84375 L 1.90625 -0.3125 L 3.46875 -0.3125 C 3.78125 -0.3125 4.039062 -0.363281 4.25 -0.46875 C 4.457031 -0.570312 4.613281 -0.695312 4.71875 -0.84375 C 4.832031 -0.988281 4.945312 -1.1875 5.0625 -1.4375 L 5.15625 -1.4375 L 4.609375 0 L 0.546875 0 L 0.546875 -0.09375 Z M 0.6875 -0.09375 "/></g></g></g><g fill="#ee6c4d" fill-opacity="1"><g transform="translate(178.972484, 215.249986)"><g><path d="M 0.578125 -0.328125 C 0.554688 -0.410156 0.546875 -0.570312 0.546875 -0.8125 C 0.546875 -1.0625 0.59375 -1.3125 0.6875 -1.5625 L 0.796875 -1.5625 C 0.796875 -1.507812 0.796875 -1.453125 0.796875 -1.390625 C 0.796875 -1.023438 0.910156 -0.726562 1.140625 -0.5 C 1.378906 -0.269531 1.707031 -0.15625 2.125 -0.15625 C 2.570312 -0.15625 2.914062 -0.253906 3.15625 -0.453125 C 3.40625 -0.660156 3.53125 -0.925781 3.53125 -1.25 C 3.53125 -1.570312 3.410156 -1.84375 3.171875 -2.0625 L 1.171875 -3.59375 C 0.847656 -3.875 0.6875 -4.242188 0.6875 -4.703125 C 0.6875 -4.960938 0.757812 -5.203125 0.90625 -5.421875 C 1.050781 -5.640625 1.25 -5.8125 1.5 -5.9375 C 1.757812 -6.070312 2.0625 -6.140625 2.40625 -6.140625 C 2.757812 -6.140625 3.066406 -6.109375 3.328125 -6.046875 L 3.65625 -6.046875 L 3.6875 -4.953125 L 3.5625 -4.953125 C 3.5625 -5.234375 3.460938 -5.453125 3.265625 -5.609375 C 3.078125 -5.765625 2.800781 -5.84375 2.4375 -5.84375 C 2.082031 -5.84375 1.785156 -5.75 1.546875 -5.5625 C 1.316406 -5.382812 1.203125 -5.148438 1.203125 -4.859375 C 1.203125 -4.566406 1.332031 -4.3125 1.59375 -4.09375 L 3.625 -2.546875 C 3.925781 -2.285156 4.078125 -1.925781 4.078125 -1.46875 C 4.078125 -1.019531 3.90625 -0.640625 3.5625 -0.328125 C 3.21875 -0.015625 2.800781 0.140625 2.3125 0.140625 C 1.976562 0.140625 1.648438 0.0976562 1.328125 0.015625 C 1.003906 -0.0546875 0.753906 -0.171875 0.578125 -0.328125 Z M 0.578125 -0.328125 "/></g></g></g><g fill="#ee6c4d" fill-opacity="1"><g transform="translate(187.590668, 215.249986)"><g><path d="M 5 -0.09375 C 5.15625 -0.09375 5.285156 -0.144531 5.390625 -0.25 C 5.503906 -0.351562 5.566406 -0.476562 5.578125 -0.625 L 5.578125 -2.8125 L 1.890625 -2.8125 L 1.890625 -0.625 C 1.898438 -0.476562 1.957031 -0.351562 2.0625 -0.25 C 2.175781 -0.144531 2.3125 -0.09375 2.46875 -0.09375 L 2.59375 -0.09375 L 2.59375 0 L 0.546875 0 L 0.546875 -0.09375 L 0.671875 -0.09375 C 0.828125 -0.09375 0.957031 -0.144531 1.0625 -0.25 C 1.175781 -0.363281 1.238281 -0.492188 1.25 -0.640625 L 1.25 -5.359375 C 1.238281 -5.503906 1.175781 -5.628906 1.0625 -5.734375 C 0.957031 -5.847656 0.828125 -5.90625 0.671875 -5.90625 L 0.546875 -5.90625 L 0.546875 -6 L 2.59375 -6 L 2.59375 -5.90625 L 2.46875 -5.90625 C 2.3125 -5.90625 2.175781 -5.851562 2.0625 -5.75 C 1.957031 -5.644531 1.898438 -5.519531 1.890625 -5.375 L 1.890625 -3.109375 L 5.578125 -3.109375 L 5.578125 -5.359375 C 5.578125 -5.503906 5.535156 -5.617188 5.453125 -5.703125 C 5.304688 -5.835938 5.15625 -5.90625 5 -5.90625 L 4.875 -5.90625 L 4.875 -6 L 6.921875 -6 L 6.921875 -5.90625 L 6.796875 -5.90625 C 6.640625 -5.90625 6.503906 -5.851562 6.390625 -5.75 C 6.285156 -5.644531 6.226562 -5.519531 6.21875 -5.375 L 6.21875 -0.625 C 6.226562 -0.476562 6.269531 -0.367188 6.34375 -0.296875 C 6.488281 -0.160156 6.640625 -0.09375 6.796875 -0.09375 L 6.921875 -0.09375 L 6.921875 0 L 4.875 0 L 4.875 -0.09375 Z M 5 -0.09375 "/></g></g></g><g fill="#ee6c4d" fill-opacity="1"><g transform="translate(199.047731, 215.249986)"><g/></g></g><g fill="#ee6c4d" fill-opacity="1"><g transform="translate(205.546745, 215.249986)"><g><path d="M 6.296875 0 L 5.921875 0 C 5.265625 0 4.773438 -0.1875 4.453125 -0.5625 L 2.25 -2.984375 L 4.40625 -5.515625 C 4.476562 -5.609375 4.488281 -5.695312 4.4375 -5.78125 C 4.382812 -5.863281 4.300781 -5.90625 4.1875 -5.90625 L 4.09375 -5.90625 L 4.09375 -6 L 6.125 -6 L 6.125 -5.90625 L 6.09375 -5.90625 C 5.6875 -5.90625 5.363281 -5.785156 5.125 -5.546875 L 2.9375 -3.203125 L 5.421875 -0.515625 C 5.535156 -0.367188 5.65625 -0.265625 5.78125 -0.203125 C 5.914062 -0.140625 6.085938 -0.101562 6.296875 -0.09375 Z M 2.484375 -0.09375 L 2.59375 -0.09375 L 2.59375 0 L 0.546875 0 L 0.546875 -0.09375 L 0.671875 -0.09375 C 0.828125 -0.09375 0.960938 -0.144531 1.078125 -0.25 C 1.191406 -0.363281 1.253906 -0.492188 1.265625 -0.640625 L 1.265625 -5.359375 C 1.253906 -5.503906 1.191406 -5.628906 1.078125 -5.734375 C 0.960938 -5.847656 0.828125 -5.90625 0.671875 -5.90625 L 0.546875 -5.90625 L 0.546875 -6 L 2.59375 -6 L 2.59375 -5.90625 L 2.484375 -5.90625 C 2.265625 -5.90625 2.097656 -5.816406 1.984375 -5.640625 C 1.929688 -5.554688 1.90625 -5.46875 1.90625 -5.375 L 1.90625 -0.625 C 1.90625 -0.476562 1.960938 -0.351562 2.078125 -0.25 C 2.191406 -0.144531 2.328125 -0.09375 2.484375 -0.09375 Z M 2.484375 -0.09375 "/></g></g></g><g fill="#ee6c4d" fill-opacity="1"><g transform="translate(215.784291, 215.249986)"><g><path d="M 2.171875 -5.734375 C 2.691406 -6.003906 3.257812 -6.140625 3.875 -6.140625 C 4.488281 -6.140625 5.050781 -6.003906 5.5625 -5.734375 C 6.082031 -5.472656 6.492188 -5.101562 6.796875 -4.625 C 7.097656 -4.144531 7.25 -3.601562 7.25 -3 C 7.25 -2.394531 7.097656 -1.851562 6.796875 -1.375 C 6.492188 -0.894531 6.082031 -0.519531 5.5625 -0.25 C 5.050781 0.0078125 4.523438 0.140625 3.984375 0.140625 C 3.453125 0.140625 2.976562 0.0664062 2.5625 -0.078125 C 2.144531 -0.234375 1.785156 -0.445312 1.484375 -0.71875 C 1.179688 -1 0.941406 -1.332031 0.765625 -1.71875 C 0.585938 -2.113281 0.5 -2.578125 0.5 -3.109375 C 0.5 -3.640625 0.648438 -4.144531 0.953125 -4.625 C 1.253906 -5.101562 1.660156 -5.472656 2.171875 -5.734375 Z M 1.984375 -0.953125 C 2.492188 -0.421875 3.117188 -0.15625 3.859375 -0.15625 C 4.609375 -0.15625 5.238281 -0.421875 5.75 -0.953125 C 6.257812 -1.484375 6.515625 -2.164062 6.515625 -3 C 6.515625 -3.832031 6.257812 -4.515625 5.75 -5.046875 C 5.238281 -5.578125 4.609375 -5.84375 3.859375 -5.84375 C 3.117188 -5.84375 2.492188 -5.578125 1.984375 -5.046875 C 1.484375 -4.515625 1.234375 -3.832031 1.234375 -3 C 1.234375 -2.164062 1.484375 -1.484375 1.984375 -0.953125 Z M 1.984375 -0.953125 "/></g></g></g><g fill="#ee6c4d" fill-opacity="1"><g transform="translate(227.521236, 215.249986)"><g><path d="M 0.6875 -0.09375 C 0.851562 -0.09375 0.988281 -0.144531 1.09375 -0.25 C 1.207031 -0.351562 1.265625 -0.476562 1.265625 -0.625 L 1.265625 -5.359375 C 1.265625 -5.503906 1.203125 -5.628906 1.078125 -5.734375 C 0.960938 -5.847656 0.828125 -5.90625 0.671875 -5.90625 L 0.546875 -5.90625 L 0.546875 -6 L 2.625 -6 L 2.625 -5.90625 L 2.5 -5.90625 C 2.34375 -5.90625 2.203125 -5.847656 2.078125 -5.734375 C 1.960938 -5.628906 1.90625 -5.503906 1.90625 -5.359375 L 1.90625 -0.3125 L 3.46875 -0.3125 C 3.78125 -0.3125 4.039062 -0.363281 4.25 -0.46875 C 4.457031 -0.570312 4.617188 -0.695312 4.734375 -0.84375 C 4.847656 -0.988281 4.957031 -1.1875 5.0625 -1.4375 L 5.15625 -1.4375 L 4.609375 0 L 0.546875 0 L 0.546875 -0.09375 Z M 0.6875 -0.09375 "/></g></g></g><g fill="#ee6c4d" fill-opacity="1"><g transform="translate(236.879115, 215.249986)"><g><path d="M 6.59375 -0.09375 L 6.6875 -0.09375 L 6.6875 0 L 4.625 0 L 4.625 -0.09375 L 4.703125 -0.09375 C 4.835938 -0.09375 4.9375 -0.132812 5 -0.21875 C 5.0625 -0.3125 5.09375 -0.394531 5.09375 -0.46875 C 5.09375 -0.550781 5.082031 -0.628906 5.0625 -0.703125 L 4.515625 -2.03125 L 1.984375 -2.03125 L 1.4375 -0.734375 C 1.394531 -0.640625 1.375 -0.554688 1.375 -0.484375 C 1.375 -0.410156 1.40625 -0.328125 1.46875 -0.234375 C 1.539062 -0.140625 1.644531 -0.09375 1.78125 -0.09375 L 1.859375 -0.09375 L 1.859375 0 L -0.046875 0 L -0.046875 -0.09375 L 0.03125 -0.09375 C 0.164062 -0.09375 0.304688 -0.140625 0.453125 -0.234375 C 0.597656 -0.335938 0.71875 -0.488281 0.8125 -0.6875 C 2.269531 -3.800781 3.03125 -5.429688 3.09375 -5.578125 C 3.207031 -5.859375 3.265625 -6.046875 3.265625 -6.140625 L 3.359375 -6.140625 L 5.828125 -0.6875 C 6.023438 -0.289062 6.28125 -0.09375 6.59375 -0.09375 Z M 2.109375 -2.328125 L 4.390625 -2.328125 L 3.265625 -5.0625 Z M 2.109375 -2.328125 "/></g></g></g><g fill="#ee6c4d" fill-opacity="1"><g transform="translate(247.506499, 215.249986)"><g><path d="M 2.296875 -2.84375 C 2.441406 -2.800781 2.578125 -2.78125 2.703125 -2.78125 C 2.835938 -2.78125 2.941406 -2.78125 3.015625 -2.78125 C 3.097656 -2.789062 3.210938 -2.8125 3.359375 -2.84375 C 3.503906 -2.882812 3.640625 -2.945312 3.765625 -3.03125 C 4.046875 -3.207031 4.25 -3.476562 4.375 -3.84375 C 4.425781 -3.976562 4.453125 -4.160156 4.453125 -4.390625 C 4.453125 -4.796875 4.3125 -5.113281 4.03125 -5.34375 C 3.75 -5.582031 3.363281 -5.703125 2.875 -5.703125 L 1.90625 -5.703125 L 1.90625 -0.640625 C 1.90625 -0.421875 2 -0.265625 2.1875 -0.171875 C 2.269531 -0.117188 2.367188 -0.09375 2.484375 -0.09375 L 2.625 -0.09375 L 2.625 0 L 0.546875 0 L 0.546875 -0.09375 L 0.6875 -0.09375 C 0.851562 -0.09375 0.988281 -0.144531 1.09375 -0.25 C 1.207031 -0.351562 1.265625 -0.476562 1.265625 -0.625 L 1.265625 -5.375 C 1.265625 -5.519531 1.207031 -5.644531 1.09375 -5.75 C 0.988281 -5.851562 0.851562 -5.90625 0.6875 -5.90625 L 0.546875 -5.90625 L 0.546875 -6 L 2.890625 -6 C 3.585938 -6 4.140625 -5.84375 4.546875 -5.53125 C 4.960938 -5.226562 5.171875 -4.816406 5.171875 -4.296875 C 5.171875 -3.921875 5.082031 -3.59375 4.90625 -3.3125 C 4.570312 -2.769531 4.046875 -2.5 3.328125 -2.5 C 2.972656 -2.5 2.628906 -2.578125 2.296875 -2.734375 Z M 2.296875 -2.84375 "/></g></g></g></svg>